<svg xmlns="http://www.w3.org/2000/svg" viewBox="0 0 64 64" fill="none">
  <!-- Background circle -->
  <circle cx="32" cy="32" r="32" fill="#0A0A0A"/>
  <!-- Outer gold ring -->
  <circle cx="32" cy="32" r="30" fill="none" stroke="#C9A84C" stroke-width="1.2" stroke-dasharray="2 1.2" opacity="0.8"/>
  <circle cx="32" cy="32" r="28" fill="none" stroke="#C9A84C" stroke-width="0.5" opacity="0.4"/>

  <!-- Lotus petals — centre tall petal -->
  <path d="M32 10 C30 15 28.5 20 28.5 27 C28.5 31 30 33.5 32 33.5 C34 33.5 35.5 31 35.5 27 C35.5 20 34 15 32 10Z" fill="#C9A84C"/>

  <!-- Left inner petal -->
  <path d="M28 14 C24 18 21.5 24 21.5 30 C21.5 33.5 23 35.5 26 35.5 C28.5 35.5 30 33.5 30 30 C30 24 29 18.5 28 14Z" fill="#C9A84C"/>

  <!-- Right inner petal -->
  <path d="M36 14 C40 18 42.5 24 42.5 30 C42.5 33.5 41 35.5 38 35.5 C35.5 35.5 34 33.5 34 30 C34 24 35 18.5 36 14Z" fill="#C9A84C"/>

  <!-- Far-left outer petal -->
  <path d="M22 20 C17 24 14 30 14 36 C14 39.5 16 41.5 19.5 41.5 C23 41.5 25 39 25.5 35.5 C26 32 24.5 26 22 20Z" fill="#A8872A"/>

  <!-- Far-right outer petal -->
  <path d="M42 20 C47 24 50 30 50 36 C50 39.5 48 41.5 44.5 41.5 C41 41.5 39 39 38.5 35.5 C38 32 39.5 26 42 20Z" fill="#A8872A"/>

  <!-- Base arc / lotus seat -->
  <path d="M18 40 C22 37.5 27 36.5 32 36.5 C37 36.5 42 37.5 46 40 C42 42 37 43 32 43 C27 43 22 42 18 40Z" fill="#C9A84C"/>

  <!-- Left leaf -->
  <path d="M14 38 C16 34 20 34 23 36 C20 39 15 40.5 14 38Z" fill="#A8872A" opacity="0.85"/>

  <!-- Right leaf -->
  <path d="M50 38 C48 34 44 34 41 36 C44 39 49 40.5 50 38Z" fill="#A8872A" opacity="0.85"/>

  <!-- KJ text -->
  <text x="32" y="56" font-family="Georgia,Times New Roman,serif" font-size="11" font-style="italic" font-weight="bold" text-anchor="middle" fill="#C9A84C" letter-spacing="1">KJ</text>
</svg>
